<?xml version="1.0" standalone="no"?>
<!DOCTYPE svg PUBLIC "-//W3C//DTD SVG 20010904//EN"
 "http://www.w3.org/TR/2001/REC-SVG-20010904/DTD/svg10.dtd">
<svg version="1.0" xmlns="http://www.w3.org/2000/svg"
 width="50.000000pt" height="50.000000pt" viewBox="0 0 50.000000 50.000000"
 preserveAspectRatio="xMidYMid meet">
<metadata>
Created by potrace 1.16, written by Peter Selinger 2001-2019
</metadata>
<g transform="translate(0.000000,50.000000) scale(0.100000,-0.100000)"
fill="#000000" stroke="none">
<path d="M86 418 c-9 -12 -16 -29 -16 -38 1 -8 7 -1 15 15 l13 30 1 -26 c1
-15 9 -33 19 -40 15 -13 16 -12 3 3 -7 10 -11 29 -9 43 7 34 -7 41 -26 13z"/>
<path d="M384 415 c4 -17 0 -31 -14 -45 -11 -11 -16 -20 -10 -20 17 0 41 46
34 65 -5 13 -4 16 4 11 7 -4 12 -22 12 -41 0 -43 -41 -80 -71 -64 -11 5 -17
14 -14 19 9 14 -30 30 -72 30 -38 0 -134 -29 -100 -30 25 0 16 -24 -10 -28
-13 -2 -29 7 -42 24 -11 15 -21 22 -21 17 0 -5 5 -14 11 -20 9 -9 5 -18 -16
-36 -44 -37 -7 -65 47 -36 19 10 20 9 15 -13 -4 -13 -11 -48 -18 -78 -11 -53
-11 -54 17 -77 62 -49 155 -55 215 -12 34 24 37 54 14 139 -8 30 -15 56 -15
58 0 1 9 -2 19 -8 11 -5 31 -10 45 -10 33 0 34 25 4 50 -19 15 -21 21 -10 31
15 16 16 71 0 87 -20 20 -31 14 -24 -13z m-244 -125 c0 -7 -45 -30 -60 -30
-16 0 -11 22 7 35 16 12 53 9 53 -5z m90 -15 c0 -32 -16 -40 -30 -15 -9 16 -8
20 4 20 10 0 13 6 9 17 -4 11 -3 14 5 9 7 -4 12 -18 12 -31z m74 20 c6 -17 -2
-45 -14 -45 -16 0 -23 22 -10 30 7 4 9 13 6 19 -4 6 -3 11 2 11 6 0 12 -7 16
-15z m112 1 c17 -13 17 -15 2 -21 -9 -4 -26 -1 -39 5 -17 10 -19 14 -8 21 19
12 22 11 45 -5z"/>
</g>
</svg>
